<svg width="16" height="14" viewBox="0 0 16 14" fill="none" xmlns="http://www.w3.org/2000/svg">
<path d="M4.78033 0.21967C4.64461 0.0839467 4.45711 0 4.25 0C4.04289 0 3.85539 0.0839468 3.71967 0.21967L0.71967 3.21967C0.426777 3.51256 0.426777 3.98744 0.71967 4.28033C1.01256 4.57322 1.48744 4.57322 1.78033 4.28033L3.5 2.56066V13.25C3.5 13.6642 3.83579 14 4.25 14C4.66421 14 5 13.6642 5 13.25V2.56066L6.71967 4.28033C7.01256 4.57322 7.48744 4.57322 7.78033 4.28033C8.07322 3.98744 8.07322 3.51256 7.78033 3.21967L4.78033 0.21967Z" fill="#007AFF"/>
<path d="M13 11.4393L14.7197 9.71967C15.0126 9.42678 15.4874 9.42678 15.7803 9.71967C16.0732 10.0126 16.0732 10.4874 15.7803 10.7803L12.7803 13.7803C12.6446 13.9161 12.4571 14 12.25 14C12.0429 14 11.8554 13.9161 11.7197 13.7803L7.71967 10.7803C7.42678 10.4874 7.42678 10.0126 7.71967 9.71967C8.01256 9.42678 8.48744 9.42678 8.78033 9.71967L11.5 11.4393L11.5 0.75C11.5 0.335787 11.8358 0 12.25 0C12.6642 0 13 0.335787 13 0.75L13 11.4393Z" fill="#007AFF"/>
</svg>
