<svg width="16" height="16" viewBox="0 0 16 16" fill="none" xmlns="http://www.w3.org/2000/svg">
<path d="M9 6V7H7V6C7 5.44772 7.44772 5 8 5C8.55228 5 9 5.44772 9 6Z" fill="#3C3C43" fill-opacity="0.6"/>
<path fill-rule="evenodd" clip-rule="evenodd" d="M8 15C11.866 15 15 11.866 15 8C15 4.13401 11.866 1 8 1C4.13401 1 1 4.13401 1 8C1 11.866 4.13401 15 8 15ZM11 8C11 7.44772 10.5523 7 10 7V6C10 4.89543 9.10457 4 8 4C6.89543 4 6 4.89543 6 6V7C5.44772 7 5 7.44772 5 8V11C5 11.5523 5.44772 12 6 12H10C10.5523 12 11 11.5523 11 11V8Z" fill="#3C3C43" fill-opacity="0.6"/>
</svg>
